<?xml version="1.0" encoding="utf-8"?>
<svg xmlns="http://www.w3.org/2000/svg" viewBox="167.016 135.69 104.35 83.906" width="104.35px" height="83.906px">
  <path d="M 226.213 148.438 L 226.213 153.343 C 227.543 153.754 228.825 154.271 230.052 154.885 L 219.045 165.892 C 218.927 165.889 218.809 165.887 218.691 165.887 C 218.183 165.887 217.683 165.919 217.193 165.982 L 211.177 159.966 C 209.67 158.459 207.226 158.459 205.72 159.966 L 200.764 164.921 C 199.257 166.429 199.257 168.872 200.764 170.378 L 206.981 176.595 C 206.951 176.941 206.935 177.29 206.935 177.643 C 206.935 184.136 212.198 189.399 218.691 189.399 C 225.184 189.399 230.447 184.136 230.447 177.643 C 230.447 177.295 230.432 176.95 230.402 176.61 L 241.206 165.806 C 241.928 167.176 242.528 168.62 242.993 170.124 L 247.896 170.124 C 250.851 170.124 253.246 172.519 253.246 175.474 L 253.246 179.815 C 253.246 182.77 250.851 185.165 247.896 185.165 L 242.992 185.165 C 242.524 186.677 241.919 188.13 241.192 189.507 L 244.661 192.976 C 246.751 195.066 246.751 198.453 244.661 200.542 L 241.592 203.612 C 239.503 205.701 236.115 205.701 234.026 203.612 L 230.556 200.142 C 229.178 200.87 227.726 201.475 226.213 201.943 L 226.213 206.848 C 226.213 209.803 223.818 212.198 220.863 212.198 L 216.522 212.198 C 213.567 212.198 211.172 209.803 211.172 206.848 L 211.172 201.943 C 209.659 201.475 208.207 200.87 206.829 200.142 L 203.359 203.612 C 201.27 205.701 197.883 205.701 195.793 203.612 L 192.724 200.542 C 190.634 198.453 190.634 195.066 192.724 192.976 L 196.194 189.506 C 195.466 188.129 194.861 186.677 194.394 185.165 L 189.486 185.165 C 186.532 185.165 184.136 182.77 184.136 179.815 L 184.136 175.474 C 184.136 172.519 186.532 170.124 189.486 170.124 L 194.393 170.124 C 194.861 168.611 195.466 167.158 196.194 165.78 L 192.724 162.31 C 190.634 160.22 190.634 156.833 192.724 154.744 L 195.793 151.674 C 197.883 149.585 201.27 149.585 203.359 151.674 L 206.829 155.144 C 208.207 154.416 209.659 153.811 211.172 153.343 L 211.172 148.438 C 211.172 145.483 213.567 143.088 216.522 143.088 L 220.863 143.088 C 223.818 143.088 226.213 145.483 226.213 148.438 Z M 202.985 166.008 L 206.929 162.065 C 207.895 161.099 209.46 161.099 210.426 162.065 L 218.452 170.091 L 244.081 144.463 C 245.047 143.497 246.612 143.497 247.578 144.463 L 251.522 148.406 C 252.487 149.371 252.488 150.938 251.522 151.904 L 224.486 178.94 C 224.397 179.072 224.295 179.197 224.178 179.314 L 220.234 183.257 C 219.754 183.738 219.127 183.979 218.498 183.981 C 217.839 184.003 217.172 183.762 216.669 183.259 L 212.726 179.315 C 212.606 179.196 212.502 179.068 212.412 178.933 L 202.985 169.506 C 202.019 168.54 202.019 166.974 202.985 166.008 Z M 167.016 138.138 C 167.016 136.786 168.112 135.69 169.464 135.69 L 184.688 135.69 C 186.04 135.69 187.136 136.786 187.136 138.138 L 187.136 143.586 C 187.136 144.938 186.04 146.034 184.688 146.034 L 177.36 146.034 L 177.36 209.252 L 184.688 209.252 C 186.04 209.252 187.136 210.348 187.136 211.7 L 187.136 217.148 C 187.136 218.5 186.04 219.596 184.688 219.596 L 169.464 219.596 C 168.112 219.596 167.016 218.5 167.016 217.148 Z M 271.366 217.148 C 271.366 218.5 270.27 219.596 268.918 219.596 L 253.694 219.596 C 252.342 219.596 251.246 218.5 251.246 217.148 L 251.246 211.7 C 251.246 210.348 252.342 209.252 253.694 209.252 L 261.022 209.252 L 261.022 146.034 L 253.694 146.034 C 252.342 146.034 251.246 144.938 251.246 143.586 L 251.246 138.138 C 251.246 136.786 252.342 135.69 253.694 135.69 L 268.918 135.69 C 270.27 135.69 271.366 136.786 271.366 138.138 Z" style="stroke-width: 1; fill: rgb(255, 255, 255);" transform="matrix(0.9999999999999999, 0, 0, 0.9999999999999999, 0, 0)"/>
</svg>


